<svg xmlns="http://www.w3.org/2000/svg" width="21" height="60" viewBox="0 0 21 60">
  <g id="expand_button_back" fill="#2a2d3e">
    <path d="M 20.5 59.5 L 5 59.5 C 2.51869010925293 59.5 0.5 57.4813117980957 0.5 55 L 0.5 5 C 0.5 2.51869010925293 2.51869010925293 0.5 5 0.5 L 20.5 0.5 L 20.5 59.5 Z" stroke="none"/>
    <path d="M 5 1 C 2.794389724731445 1 1 2.794391632080078 1 5 L 1 55 C 1 57.20560836791992 2.794389724731445 59 5 59 L 20 59 L 20 1 L 5 1 M 5 0 L 21 0 L 21 60 L 5 60 C 2.238580703735352 60 0 57.76142120361328 0 55 L 0 5 C 0 2.238571166992188 2.238580703735352 0 5 0 Z" stroke="none" fill="#404252"/>
  </g>
</svg>
