<svg id="Layer_1" data-name="Layer 1" xmlns="http://www.w3.org/2000/svg" viewBox="0 0 119.8 122.88"><defs><style>.cls-1{fill-rule:evenodd;}</style></defs><title>classroom</title><path class="cls-1" d="M21.38,0a10.1,10.1,0,1,1-10.1,10.09A10.09,10.09,0,0,1,21.38,0ZM97.67,86.17a8.77,8.77,0,1,1-8.76,8.77,8.77,8.77,0,0,1,8.76-8.77Zm-69.73,0a8.77,8.77,0,1,1-8.76,8.77,8.77,8.77,0,0,1,8.76-8.77ZM22.43,105a11.12,11.12,0,0,0-5.58,2.23A17.86,17.86,0,0,0,12,113.51a21,21,0,0,0-2,8.35l-.15,1h7.52l.12-1.33a10.69,10.69,0,0,1,.81-3.88,6.33,6.33,0,0,1,1-1.69l.14,6.9H36.36l.08-4.59v.3l.05-2.61a6.33,6.33,0,0,1,1,1.69,10.69,10.69,0,0,1,.81,3.88l.12,1.33H39a4.44,4.44,0,0,1,0-.63l.14-1a34.63,34.63,0,0,1,.7-5A24.78,24.78,0,0,1,41.76,111l.28-.57A11.63,11.63,0,0,0,33.37,105c-3-.24-8,0-10.94,0ZM62.81,83.48a9.41,9.41,0,1,1-9.41,9.4,9.4,9.4,0,0,1,9.41-9.4Zm-5.92,20.17a12,12,0,0,0-6,2.4,19.27,19.27,0,0,0-5.19,6.77,22.62,22.62,0,0,0-2.15,9l-.16,1.09h8.08l.13-1.43a11.6,11.6,0,0,1,.87-4.16,6.87,6.87,0,0,1,1.09-1.82l.15,7.41H71.84l.09-4.92v.32l.06-2.81a7.44,7.44,0,0,1,1.09,1.82,11.82,11.82,0,0,1,.87,4.16l.13,1.43h8.07L82,121.79a22.46,22.46,0,0,0-2.15-9c-2.63-5.56-6-8.5-11.21-9.11-3.19-.26-8.54,0-11.74-.06ZM92.16,105a11.11,11.11,0,0,0-5.59,2.23,16.27,16.27,0,0,0-3,3.24l.25.52a24.3,24.3,0,0,1,1.86,5.31,33.32,33.32,0,0,1,.69,5l.11.72a4.74,4.74,0,0,1,.08.86h.58l.12-1.33a10.92,10.92,0,0,1,.82-3.88,6.31,6.31,0,0,1,1-1.69l.14,6.9h16.88l.08-4.59v.3l.06-2.61a6.58,6.58,0,0,1,1,1.69,10.69,10.69,0,0,1,.81,3.88l.12,1.33h7.53l-.15-1a20.81,20.81,0,0,0-2-8.35c-2.45-5.18-5.62-7.92-10.44-8.49-3-.24-8,0-10.93,0ZM51.35,37.14,62.66,25.27a1.75,1.75,0,0,1,2.54,2.41L54.54,38.86a4.77,4.77,0,0,1-3.71,7.81v13.9h55.63V15.67H50.83V37l.52.1ZM75.91,72.32V64.2H39.37a1.82,1.82,0,1,1,0-3.63H47.2V46.05l-9.06-1.74a4.75,4.75,0,0,1-3-1.9L31.25,37.1v.14l-.31,17.7,3.89,22.28,1,7.4a2.16,2.16,0,0,1,0,.35,12.65,12.65,0,0,0-10.51-2.46L21.37,59.9,17,85.15c-1,5.46-9.87,5.5-9.94-1.12L12,55.13,11.6,37.57h0l-.07-3a7.68,7.68,0,0,0-1.16,2A12.43,12.43,0,0,0,9.43,41L8.57,52.25v.18h0v0l0,.08v.06h0v.16h0v.33h0v.09l0,0v.05h0v0l0,0v.1h0v0l0,0v0l0,0v0l0,0v0l0,0v0l0,0,0,0v0l0,0v0c-1.68,2.32-5.85,3-7.41,0v0h0v-.09l0,0v0h0v-.07l0-.06v-.07h0v0l0-.09v-.09h0v-.07l0-.1V53h0v0l0-.11v-.07h0v-.09l0-.08V52.5h0v0l0-.14v-.08a72.15,72.15,0,0,1,.8-10.9C1.48,32,6.25,22.51,16.45,21.75c3-.22,6.06.08,9,.08a16.1,16.1,0,0,1,5.8,1A4.74,4.74,0,0,1,34,24.65l7.7,10.63,5.49,1.06V15.67H39.37a1.82,1.82,0,1,1,0-3.63H75.62V6.76a1.82,1.82,0,1,1,3.63,0V12h38.54a1.82,1.82,0,1,1,0,3.63h-7.73v44.9H118a1.82,1.82,0,1,1,0,3.63H79.5v8.31c.1.06.16.13.26.19L91.09,83.46a1.61,1.61,0,0,1,.33.42A13.39,13.39,0,0,0,89,85.71l-.27.24-.09.1L79.5,77.44v7.84a1.82,1.82,0,0,1-3.63,0V77.09L71,81.77A13.69,13.69,0,0,0,67.67,80l8.24-7.67Z"/></svg>