<?xml version="1.0" encoding="iso-8859-1"?>
<!-- Uploaded to: SVG Repo, www.svgrepo.com, Generator: SVG Repo Mixer Tools -->
<svg fill="#000000" height="800px" width="800px" version="1.1" id="Layer_1" xmlns="http://www.w3.org/2000/svg" xmlns:xlink="http://www.w3.org/1999/xlink" 
	 viewBox="0 0 512 512" xml:space="preserve">
<g>
	<g>
		<g>
			<path d="M503.467,494.933H460.8V230.4c0-4.71-3.814-8.533-8.533-8.533h-51.2c-4.719,0-8.533,3.823-8.533,8.533v264.533h-17.067
				V349.867c0-4.71-3.814-8.533-8.533-8.533h-50.492c-4.719,0-8.533,3.823-8.533,8.533v145.067h-17.775V298.667
				c0-4.71-3.814-8.533-8.533-8.533h-51.2c-4.719,0-8.533,3.823-8.533,8.533v196.267H204.8V332.8c0-4.71-3.814-8.533-8.533-8.533
				h-51.2c-4.719,0-8.533,3.823-8.533,8.533v162.133h-17.067v-93.867c0-4.71-3.814-8.533-8.533-8.533h-51.2
				c-4.719,0-8.533,3.823-8.533,8.533v93.867H8.533c-4.719,0-8.533,3.823-8.533,8.533S3.814,512,8.533,512h51.2
				c4.719,0,8.533-3.823,8.533-8.533V409.6H102.4v93.867c0,4.71,3.814,8.533,8.533,8.533h34.133c4.719,0,8.533-3.823,8.533-8.533
				V341.333h34.133v162.133c0,4.71,3.814,8.533,8.533,8.533H230.4c4.719,0,8.533-3.823,8.533-8.533V307.2h34.133v196.267
				c0,4.71,3.814,8.533,8.533,8.533h34.842c4.719,0,8.533-3.823,8.533-8.533V358.4H358.4v145.067c0,4.71,3.814,8.533,8.533,8.533
				h34.133c4.719,0,8.533-3.823,8.533-8.533V238.933h34.133v264.533c0,4.71,3.814,8.533,8.533,8.533h51.2
				c4.719,0,8.533-3.823,8.533-8.533S508.186,494.933,503.467,494.933z"/>
			<path d="M34.133,324.267c18.825,0,34.133-15.309,34.133-34.133c0-4.028-0.828-7.834-2.108-11.426l167.646-167.646
				c5.99,5.163,13.688,8.405,22.195,8.405c6.332,0,12.186-1.843,17.271-4.855l38.784,38.784c-3.004,5.086-4.855,10.94-4.855,17.271
				c0,18.825,15.309,34.133,34.133,34.133c18.825,0,34.133-15.309,34.133-34.133c0-6.315-1.843-12.151-4.83-17.229l89.993-90.01
				c5.086,3.004,10.931,4.838,17.237,4.838c18.825,0,34.133-15.309,34.133-34.133C512,15.309,496.691,0,477.867,0
				s-34.133,15.309-34.133,34.133c0,6.315,1.843,12.151,4.83,17.229l-90.001,90.01c-5.077-3.004-10.923-4.838-17.229-4.838
				c-6.289,0-12.117,1.826-17.186,4.813l-38.835-38.827c2.987-5.069,4.821-10.897,4.821-17.186
				c0-18.825-15.309-34.133-34.133-34.133c-18.825,0-34.133,15.309-34.133,34.133c0,4.028,0.828,7.834,2.108,11.426L56.329,264.405
				C50.338,259.243,42.641,256,34.133,256C15.309,256,0,271.309,0,290.133S15.309,324.267,34.133,324.267z M477.867,17.067
				c9.404,0,17.067,7.654,17.067,17.067c0,9.412-7.663,17.067-17.067,17.067c-4.659,0-8.875-1.886-11.955-4.915
				c-0.034-0.034-0.043-0.085-0.077-0.119c-0.034-0.034-0.085-0.043-0.12-0.077c-3.029-3.081-4.915-7.296-4.915-11.955
				C460.8,24.721,468.454,17.067,477.867,17.067z M341.333,153.6c9.404,0,17.067,7.654,17.067,17.067
				c0,9.412-7.663,17.067-17.067,17.067c-9.412,0-17.067-7.654-17.067-17.067C324.267,161.254,331.921,153.6,341.333,153.6z
				 M256,68.267c9.412,0,17.067,7.654,17.067,17.067c0,9.412-7.654,17.067-17.067,17.067c-9.412,0-17.067-7.654-17.067-17.067
				C238.933,75.921,246.588,68.267,256,68.267z M34.133,273.067c9.404,0,17.067,7.654,17.067,17.067
				c0,9.412-7.663,17.067-17.067,17.067c-9.412,0-17.067-7.654-17.067-17.067C17.067,280.721,24.721,273.067,34.133,273.067z"/>
		</g>
	</g>
</g>
</svg>